<svg version="1.1" xmlns="http://www.w3.org/2000/svg" xmlns:xlink="http://www.w3.org/1999/xlink" x="0px" y="0px" 
	 viewBox="0 0 459 435" style="enable-background:new 0 0 459 435;" xml:space="preserve">
<style type="text/css">
	.st0{display:none;}
	.st1{display:inline;fill:#021B30;stroke:#FF33CF;stroke-miterlimit:10;}
	.st2{fill:#0D0D0D;}
	.st3{fill:#1D1B1B;}
	.st4{fill:#171616;}
	.st5{fill:#FFFFFF;}
	.st6{fill:#FFFFFF;stroke:#9B9B9B;stroke-width:0.25;stroke-miterlimit:10;}
</style>
<g id="BG" class="st0">
	<rect class="st1" width="459" height="435"/>
</g>
<g id="diamond">
	<polygon class="st2" points="72.5,175.3 150.5,97.8 306.5,97.8 384.5,175.3 228.5,332.3 	"/>
	<polygon class="st3" points="150.7,254 189.2,253.7 307.4,252.9 228.5,332.3 	"/>
	<polygon class="st4" points="190,253.7 265,253.7 228.5,332.3 	"/>
	<polygon class="st2" points="190,254 227,176 266,254 	"/>
	<polygon class="st4" points="150.7,176 227,176 190,254 	"/>
	<polygon class="st4" points="304.3,176 227,176 266,254 	"/>
	<polygon class="st3" points="188.9,138.7 227,176 150.7,176 	"/>
	<polygon class="st3" points="266,138.7 304.3,176 227,176 	"/>
	<polygon class="st3" points="227.5,97.8 266,138.7 188.9,138.7 	"/>
	<polygon class="st4" points="188.9,138.7 266,138.7 227,176 	"/>
	<polygon class="st3" points="72.5,175.3 150.7,176 176.3,226.7 150.7,254 	"/>
	<polygon class="st3" points="384.5,175.3 304.3,176 279,227.6 307.4,252.9 	"/>
	<polygon class="st4" points="72.5,175.3 150.7,176 188.9,138.7 150.5,97.8 	"/>
	<polygon class="st4" points="384.5,175.3 304.3,176 266,138.7 306.5,97.8 	"/>
</g>
<g id="stars">
	<polygon class="st5" points="261.9,109.2 267.3,109.9 270.3,105.8 270,110.9 273.7,114.2 268.8,113.6 266,117.7 266,112.7 	"/>
	<polygon class="st5" points="178,274.5 183.4,275.2 186.4,271 186.1,276.2 189.8,279.5 184.9,278.9 182.1,283 182.1,278 	"/>
	<polygon class="st5" points="246.6,298.5 252,299.2 255,295 254.7,300.2 258.4,303.5 253.5,302.9 250.7,307 250.7,302 	"/>
	<polygon class="st5" points="155.6,138.5 161,139.2 164,135 163.7,140.2 167.4,143.5 162.5,142.9 159.7,147 159.7,142 	"/>
</g>
<g id="pp">
	<path class="st6" d="M313.7,207.6c-1.4,10.4-2.4,19.7-2.4,22.7c0,2.1-1.4,3.4-2.9,3.7c-1.8,0.4-3.8-0.7-4-3.4
		c-0.2-2.8,4.7-47.3,7-60c0.4-2.2,2-3.5,3.7-3.9c1.9-0.4,3.8,0.4,4,2.5c0,0.3,0.1,0.6-0.4,3.5c2-5.8,4.8-10.2,8.4-11
		c5.2-1.1,7.8,3.5,8.3,9.6c0.9,10-3.3,25-9.9,32.3c7.6-3.3,11.8-9.1,15.2-18.3c0-0.1,0-0.1,0.1-0.2c1.1-9.9,2.4-18.8,3.2-23.2
		c0.4-2,1.7-3,3.1-3.3c2-0.4,4.3,0.7,4.5,2.4c0.1,0.8-0.2,2.5-0.4,4c2.1-5.9,4.8-10.2,8.4-10.9c5.1-1.1,7.6,3.4,8.1,9.7
		c1.2,13.5-6.6,36.5-16.7,38.6c-2,0.4-3.6-0.1-4.8-0.9c-1.6,12.1-2.9,23.1-2.9,26.2c0,1.5-1.4,2.4-2.7,2.7c-1.9,0.4-3.9-0.3-4.1-2.7
		c-0.2-2.2,1.4-18.6,3.4-34.6c-3.5,7.6-8.7,12.9-18.4,14.9C317.5,209,315.1,208.4,313.7,207.6z M314.6,201c1.7-1.2,3.8,0.4,4.6,2
		c5-4.5,8.6-21.7,7.8-30c-0.3-3-1.1-4.8-2.6-4.5c-3.3,0.7-6.4,9.8-8.3,21.2C315.6,193.4,315.2,197.2,314.6,201z M346.6,198.2
		c0.6,0.4,1.7,0.6,2.5,0.4c6.2-1.3,11.1-23.7,10.2-33.4c-0.3-3-1.1-4.6-2.5-4.3c-2.9,0.6-5.6,7.9-7.5,17.2
		C348.5,184.5,347.5,191.3,346.6,198.2z"/>
</g>
<g id="arkA">
	<path class="st5" d="M180.2,229.6c0.1,1.3,0.6,2.1,1.5,1.9c1.9-0.4,4.4-5.5,7.9-14.8c0.4-1,1.1-1.7,1.5-1.8
		c0.3-0.1,0.6,0.1,0.6,0.7c0,0.3,0,0.9-0.2,1.5c-1,3.3-5.5,18.6-12.6,20c-2.8,0.6-6.3-0.2-6.9-6.6c0-0.4-0.1-1-0.1-1.7
		c-2.5,6.5-5.7,10.9-8.6,11.5c-4.9,1-7.5-3.5-8-10.3c-1.1-13.1,5.2-34.2,15.7-36.3c3.7-0.7,6.3,2.5,6.7,5.1l0.5-0.1
		c2.3-0.5,5.2,0.8,5.5,4c0,0.4,0.1,0.9,0,1.3C182.2,215.6,179.9,225.5,180.2,229.6z M173.8,214.3l1.8-13c-0.1-1.5-0.6-3.2-2.7-2.8
		c-6.1,1.3-9.9,22.5-9.2,31.5c0.2,2.6,0.8,4.1,1.9,3.9C169,233.3,172.3,224.3,173.8,214.3z"/>
	<path class="st5" d="M199.3,230.4c-0.1,1.9-1.6,3.2-3.1,3.5c-1.7,0.4-3.6-0.5-3.8-3.1c-0.5-6,1.1-23.6,4.1-37.7
		c0.3-1.6,1.7-2.5,3.3-2.9c2.1-0.4,4.6,0.5,4.8,2.9c0.1,1.5-0.8,3.8-1.1,5.5c2.7-7.3,6.3-12.9,10.8-13.9c3.4-0.7,4.8,0.9,5.1,4.6
		c0.4,4.8-3.3,13.7-3,16.7c0.1,1.2,0.9,1.7,2.3,1.5c3-0.6,6.2-7.7,7.5-11.3c0.4-1.4,1-2.3,1.6-2.4c1-0.2,0.8,1.7,0.7,2.3
		c-0.9,5.2-5.6,14-11.9,15.3c-3.7,0.7-7.3,0-7.7-5.2c-0.4-4.7,3.1-11.3,2.9-14c-0.1-0.6-0.4-1-1-0.8c-3.1,0.6-9.5,14.5-10.6,29.5
		L199.3,230.4z"/>
	<path class="st5" d="M230.6,226.5c-1.9,0.4-4.3-0.6-4.5-2.7c-0.4-4.1,3-37.5,7.4-58.1c0.3-1.6,1.6-2.3,3-2.6
		c2.3-0.5,5.1,0.5,5.2,2.4c0,0.3,0,0.4,0,0.7c-1.5,6.4-3.2,15-4.6,23.5c2.5-6,5.6-10.6,9.5-11.4c4.7-1,7.1,2.3,7.5,7.1
		c0.7,7.9-3.9,20-11.9,24.4c3.8,7,4.5,9.1,7.2,8.5c4.2-0.9,7.1-8.1,10.1-15.9c0.4-1,1.1-1.7,1.6-1.8c0.3-0.1,0.5,0.1,0.5,0.5
		c0,0.3,0,0.9-0.2,1.6c-2.3,7.7-6.3,19.2-14,20.7c-6.7,1.4-8.7-2.9-13.5-11.5l-0.1,0.1c-0.7,5.7-1.2,10-1.3,12.2
		C232.6,225.5,231.7,226.2,230.6,226.5z M243.7,185.2c-3.7,0.7-7.2,10.6-9.2,22.5c0.8-0.8,1.7-1.4,2.7-1.6c1.2-0.2,2.3,0,3.4,1.2
		c4-3.9,6.6-13,6.1-18.2C246.6,186.5,245.6,184.8,243.7,185.2z"/>
	<path class="st5" d="M266.7,198.6c5.4-13.2,12.3-31.9,18.2-54.5l0.4-6.1c0.2-3,2.5-4.9,5-5.5c2.1-0.4,4.3,0.4,4.5,2.9
		c0.4,4.3-0.7,37.8,0.8,59.8c0.4,6.4,1.5,10.4,2.9,10.1c2.8-0.6,5.2-8.3,8.7-18c0.6-1.5,1.3-2.3,1.8-2.4c0.5-0.1,0.7,0.2,0.8,1
		c0,0.4,0,1.2-0.3,2.1c-2.7,8.9-5.7,24.1-14.8,25.9c-4.6,0.9-7.4-5.6-8.8-15.6c-3.7,1-8.4,2.3-13.6,3.3c-4.1,13.5-5.1,17.9-7.9,18.5
		c-2.2,0.5-5.1-0.8-5.3-2.8c-0.1-1.7,2.8-7.6,5.4-14.2l-4.1,0.6c-2,0.3-3.1-0.6-3.2-1.6s0.8-2.2,2.6-2.6
		C261.7,199.4,264.1,199.1,266.7,198.6z M285,191c-0.9-10-1-21.8-0.7-32.8c-4.1,16.2-7.8,29.3-10.6,39.1l11.7-2
		C285.3,194,285.2,192.6,285,191z"/>
</g>
<g id="D">
	<path class="st6" d="M155.3,168.4c-2.8-9-6.4-12.2-15.5-13.5c-8.3-1.2-15.4,2.4-15.4,2.4c-19.6,7.4-41.9,50.9-32.4,55
		c0,0,1.9,2.2,6,2.6c4.1,0.4,4.6-5.1,4.6-5.1c-3.5,1-3.8-1.5-3.8-1.5c-0.8-8.1,2.8-16.7,5.4-20.8c1-1.6,1.9-0.9,1.9-0.9
		s-0.2,45.7,0.3,49c0.5,3.3,1.4,4.4,2.5,5.3c1.6,1.3,2.7,0.8,5,1.2c2.3,0.3-0.7,2.2-0.7,2.2c-5.1,2.5-9.9,1.8-11.8,1.3
		c-1.7-0.4-2.4-2.4-2.4-2.4s0.1-2.4,0.1-4.5c0.1-2.1-1.1-2.7-1.1-2.7s-0.8-0.6-3,0.1c-2.2,0.7-1.8,3.9-1.6,5.3
		c0.8,4.5,2.4,7.7,9.8,10.5c5.3,2.1,10.8,0,10.8,0c29.8-15,39.3-51.3,39.3-51.3S158.8,179.6,155.3,168.4z M127.3,231.9
		c-1.3,1.8-3.6,4.1-8.5,3.1c-1.5-0.3-2.3-3.1-2.5-7.2c0,0,0.6-38.9,1.9-44.1c0,0,0.8-2.7,1.3-3.9c0.6-1.4,1.7-2.4,1.7-3.5
		c0-1.9-1.6-3.1-4.8-3.8c-1.1-0.3-0.4-1.3-0.4-1.3s3.8-4.7,10-6.2s8.7,0,8.7,0s6,1.8,7.7,11C143.8,184,146.4,205.6,127.3,231.9z"/>
</g>
</svg>
